<?xml version="1.0" encoding="UTF-8"?>
<svg id="Layer_1" data-name="Layer 1" xmlns="http://www.w3.org/2000/svg" viewBox="0 0 388 299.82">
  <g id="Layer_1-2" data-name="Layer_1">
    <g id="_2042865738160" data-name=" 2042865738160">
      <path fill="#333333" fill-rule="evenodd" d="M113.51,200.65h67.32c1.44,0,2.59,1.15,2.59,2.59v17.64c0,1.37-1.15,2.52-2.59,2.52h-67.32c-1.37,0-2.52-1.15-2.52-2.52v-17.64c0-1.44,1.15-2.59,2.52-2.59Z"/>
      <path fill="#333333" fill-rule="evenodd" d="M220.07,200.65h67.32c1.44,0,2.59,1.15,2.59,2.59v17.64c0,1.37-1.15,2.52-2.59,2.52h-67.32c-1.44,0-2.59-1.15-2.59-2.52v-17.64c0-1.44,1.15-2.59,2.59-2.59Z"/>
      <path fill="#333333" d="M94.29,284.75v-30.6h6.12v12.02h11.81v-12.02h6.12v30.6h-6.12v-13.39h-11.81v13.39h-6.12ZM124.96,284.75v-30.6h9.07l5.4,20.88,5.33-20.88h9.14v30.6h-5.62l-.07-24.12-5.9,24.12h-5.83l-5.9-24.12v24.12h-5.62ZM160.17,284.75v-30.6h6.05v30.6h-6.05ZM172.41,284.75v-30.6h9.72c3.74,0,6.12.14,7.2.43,1.73.5,3.17,1.51,4.32,3.02,1.22,1.51,1.8,3.53,1.8,5.98,0,1.87-.36,3.46-1.01,4.68-.72,1.3-1.51,2.3-2.59,3.02-1.01.79-2.02,1.22-3.1,1.51-1.44.29-3.53.43-6.26.43h-3.96v11.52h-6.12ZM178.53,259.33v8.71h3.31c2.38,0,3.96-.14,4.75-.5.79-.29,1.44-.79,1.87-1.51.5-.65.72-1.44.72-2.38,0-1.15-.36-2.02-1.01-2.74-.58-.72-1.44-1.22-2.38-1.37-.72-.14-2.16-.22-4.39-.22h-2.88ZM239.15,284.75l-7.06-30.6h6.26l4.46,21.02,5.47-21.02h7.2l5.26,21.38,4.61-21.38h6.05l-7.2,30.6h-6.48l-5.98-22.9-5.9,22.9h-6.7ZM275.01,284.75v-30.6h22.25v5.18h-16.13v6.77h14.98v5.18h-14.98v8.28h16.7v5.18h-22.82ZM303.37,284.75v-30.6h12.82c3.17,0,5.54.29,6.98.79,1.44.58,2.59,1.58,3.53,2.95.86,1.44,1.3,3.02,1.3,4.82,0,2.3-.65,4.18-2.02,5.69-1.3,1.51-3.24,2.45-5.9,2.81,1.3.79,2.38,1.66,3.24,2.59s2.02,2.59,3.46,4.97l3.67,5.98h-7.27l-4.32-6.7c-1.58-2.38-2.66-3.89-3.24-4.46-.58-.65-1.15-1.08-1.8-1.3s-1.73-.36-3.1-.36h-1.22v12.82h-6.12ZM309.49,267.11h4.46c2.95,0,4.75-.14,5.47-.36.72-.29,1.3-.72,1.66-1.3.43-.65.65-1.44.65-2.3,0-1.08-.29-1.87-.79-2.52-.58-.65-1.3-1.08-2.3-1.22-.5-.07-1.94-.07-4.39-.07h-4.75v7.78Z"/>
      <path fill="#333333" d="M78.88,262.5c-.86-.72-1.8-1.22-2.81-1.58s-2.02-.43-3.02-.36c-1.08,0-2.09.29-3.1.72s-1.94,1.08-2.81,1.94-1.51,1.8-2.02,2.88c-.43,1.01-.65,2.02-.72,3.02-.07,1.08.07,2.09.36,3.1.36,1.01.86,1.94,1.58,2.81l-4.61,4.61c-1.66-1.8-2.81-3.67-3.38-5.62-.65-1.94-.86-3.89-.79-5.76.14-1.94.65-3.74,1.44-5.47.86-1.73,1.87-3.17,3.17-4.46s2.81-2.38,4.54-3.24c1.73-.79,3.53-1.3,5.4-1.37,1.94-.14,3.89.07,5.83.72s3.82,1.8,5.54,3.38l-4.61,4.68ZM79.31,275.46c.86-.86,1.51-1.8,1.94-2.88.43-1.01.72-2.02.79-3.1,0-1.01-.14-2.02-.43-3.02-.36-1.01-.86-1.94-1.58-2.81l4.68-4.61c1.58,1.73,2.74,3.6,3.38,5.54.58,1.94.86,3.89.72,5.76-.14,1.94-.58,3.74-1.44,5.47-.79,1.73-1.87,3.24-3.17,4.54-1.3,1.22-2.81,2.3-4.46,3.1-1.73.86-3.53,1.37-5.47,1.44-1.87.14-3.82-.07-5.76-.72s-3.82-1.73-5.62-3.38l4.61-4.61c.86.72,1.8,1.22,2.81,1.51,1.01.36,2.02.5,3.1.43,1.01-.07,2.09-.29,3.1-.72s1.94-1.08,2.81-1.94Z"/>
      <path fill="#333333" d="M220.29,262.5c-.86-.65-1.8-1.22-2.81-1.51-1.01-.36-2.02-.5-3.1-.43-1.01.07-2.02.36-3.1.79-1.01.43-1.94,1.08-2.81,1.94s-1.51,1.8-1.94,2.81c-.43,1.08-.72,2.09-.79,3.1,0,1.01.07,2.09.43,3.1.29,1.01.86,1.94,1.51,2.74l-4.61,4.68c-1.58-1.8-2.74-3.67-3.38-5.62-.58-1.94-.86-3.89-.72-5.83.14-1.87.58-3.67,1.44-5.4.79-1.73,1.87-3.24,3.17-4.46,1.3-1.37,2.81-2.38,4.54-3.24,1.66-.79,3.46-1.3,5.4-1.44,1.87-.07,3.82.14,5.76.79s3.82,1.8,5.62,3.38l-4.61,4.61ZM220.72,275.46c.86-.79,1.51-1.8,1.94-2.81s.65-2.02.72-3.1c.07-1.01-.07-2.02-.43-3.02-.29-1.01-.79-1.94-1.51-2.81l4.61-4.68c1.66,1.8,2.74,3.67,3.38,5.62s.94,3.89.79,5.76c-.14,1.94-.65,3.74-1.44,5.47-.79,1.66-1.87,3.17-3.17,4.54-1.3,1.22-2.81,2.3-4.54,3.1-1.66.86-3.53,1.3-5.4,1.44-1.94.14-3.82-.07-5.83-.72-1.94-.65-3.82-1.73-5.54-3.38l4.61-4.61c.86.72,1.8,1.22,2.81,1.51,1.01.36,2.02.5,3.02.43,1.08-.07,2.09-.29,3.1-.72,1.08-.43,2.02-1.15,2.88-2.02Z"/>
      <path fill="#3dae2b" fill-rule="evenodd" d="M125.32,114.9c0,8.71,0,13.25,2.3,21.96,1.73,6.7,4.61,13.75,8.06,19.51,3.67,6.05,6.91,10.3,12.1,15.48,6.77,6.77,13.32,10.94,21.67,15.05,1.51.79,3.17,1.51,4.9,2.16.22.07.43.14.58.22,6.91,1.8,8.42-1.3,8.42-4.82v-13.75c0-3.24-2.02-4.97-4.25-5.9-.07,0-.14,0-.14-.07-3.74-1.8-7.13-4.03-10.87-6.91-.72-.65-1.01-1.08-1.73-1.58-3.17-2.38-8.14-9-10.15-12.67-10.73-19.37-8.78-41.4,4.46-58.32,4.03-5.11,9.29-9.65,15.19-12.96h0c.79-.86,4.18-2.45,4.03-6.41h0v-.07h0v-16.63h0c-.14-2.74-3.6-3.53-5.98-2.59-.07,0-.14.07-.22.07s-.07.07-.14.07c-2.09.79-3.96,1.66-4.75,2.02-9,4.54-19.15,11.52-25.42,19.51-5.4,6.98-9,11.81-12.6,20.74-.72,1.87-1.37,3.53-2.09,5.62-.65,2.09-1.08,4.03-1.66,6.26-.94,3.74-1.73,9.58-1.73,14.04Z"/>
      <path fill="#333333" fill-rule="evenodd" d="M190.19,24.47v68.98c0,7.7,10.51,13.54,17.35,6.91,1.44-1.51,3.1-4.03,3.1-6.91V24.47c0-3.89-2.81-7.27-6.19-8.78-5.11-2.3-10.87.14-13.25,4.82-.43.94-1.01,2.74-1.01,3.96Z"/>
      <path fill="#3dae2b" fill-rule="evenodd" d="M275.51,114.9c0,8.71,0,13.25-2.3,21.96-1.8,6.7-4.68,13.75-8.14,19.51-3.67,6.05-6.84,10.3-12.1,15.48-6.7,6.77-13.25,10.94-21.6,15.05-1.58.79-3.24,1.51-4.97,2.16-.22.07-.36.14-.58.22-6.91,1.8-8.42-1.3-8.35-4.82v-13.75c0-3.24,2.02-4.97,4.18-5.9.07,0,.14,0,.22-.07,3.67-1.8,7.06-4.03,10.8-6.91.72-.65,1.08-1.08,1.8-1.58,3.1-2.38,8.14-9,10.15-12.67,10.66-19.37,8.78-41.4-4.54-58.32-4.03-5.11-9.29-9.65-15.19-12.96h0c-.72-.86-4.18-2.45-3.96-6.41h0v-.07h0v-16.63h0c.07-2.74,3.53-3.53,5.9-2.59.07,0,.14.07.22.07s.14.07.14.07c2.09.79,4.03,1.66,4.75,2.02,9,4.54,19.15,11.52,25.42,19.51,5.4,6.98,9.07,11.81,12.6,20.74.79,1.87,1.37,3.53,2.09,5.62.65,2.09,1.08,4.03,1.66,6.26.94,3.74,1.8,9.58,1.8,14.04Z"/>
    </g>
  </g>
</svg>